<svg width="53" height="52" viewBox="0 0 53 52" fill="none" xmlns="http://www.w3.org/2000/svg">
<g clip-path="url(#clip0_29_57)">
<path d="M29.3822 23.4V13H24.1822V23.4H13.7822V28.6H24.1822V39H29.3822V28.6H39.7822V23.4H29.3822ZM26.7822 52C19.8866 52 13.2734 49.2607 8.39745 44.3848C3.5215 39.5088 0.782227 32.8956 0.782227 26C0.782227 19.1044 3.5215 12.4912 8.39745 7.61522C13.2734 2.73928 19.8866 0 26.7822 0C33.6779 0 40.2911 2.73928 45.167 7.61522C50.0429 12.4912 52.7822 19.1044 52.7822 26C52.7822 32.8956 50.0429 39.5088 45.167 44.3848C40.2911 49.2607 33.6779 52 26.7822 52Z" fill="#425C5F"/>
</g>
<defs>
<clipPath id="clip0_29_57">
<rect width="52" height="52" fill="white" transform="translate(0.782227)"/>
</clipPath>
</defs>
</svg>
